<svg width="165" height="204" viewBox="0 0 165 204" fill="none" xmlns="http://www.w3.org/2000/svg">
<path d="M44.9377 36.5429C35.9377 40.5441 37.4381 52.5435 35.9377 54.5429C34.4373 56.5424 25.2154 56.2021 19.9377 64.5429C10.2976 79.7782 20.9317 89.6531 31.9383 94.5449C58.9382 106.545 71.8 112.154 89.8043 118.545C94.9382 120.367 101.938 119 103.938 118.545C114.758 116.084 124.938 107.545 134.438 104.045C137.722 102.835 141.701 107.864 138.938 110.045C129.438 117.545 115.342 123.673 101.938 131.045C91.9382 136.545 91.9382 139.545 92.4382 146.045C93.0901 154.52 116.938 151.545 131.938 152.545C134.861 152.74 134.341 159.153 131.438 159.545C112.938 162.045 94.7936 161.045 93.9382 160.045C93.9382 160.045 81.9369 138.543 77.9373 135.045C73.9377 131.547 68.1691 133.122 66.4385 138.545C64.1284 145.785 77.2112 160.286 75.9381 160.545C76.5486 161.324 59.7266 159.555 53.9381 162.045C49.095 164.128 48.23 174.566 56.4377 175.545C64.6454 176.524 76.4377 174.043 76.4377 175.545C76.4377 177.047 69.1685 186.695 66.4377 193.043C63.7068 199.391 73.9373 208.045 78.9377 199.545C83.9381 191.045 92.3253 177.493 94.4382 175.045C96.551 172.597 141.249 173.06 152.438 168.043C154.835 166.968 156.062 165.521 156.938 163.045C157.852 160.46 157.438 159.045 156.438 156.043C155.437 153.041 147.274 144.909 140.938 138.545C135.139 132.72 157.887 125.995 161.387 121.992C164.887 117.989 164.938 117.045 162.938 112.545C160.938 108.045 110.939 53.0476 102.438 51.0449C93.9378 49.0423 74.9385 52.0451 69.9381 47.0425C64.9377 42.0398 53.9377 32.5418 44.9377 36.5429Z" fill="white"/>
<path d="M27.9382 105.045C33.5877 112.82 38.4382 122.045 45.4382 134.545C45.4382 134.545 46.2769 138.957 45.4382 140.545C42.6554 145.814 35.2382 158.524 27.9382 170.05C24.8372 174.947 12.9988 169.307 15.4394 164.05C21.9395 150.05 25.4394 145.555 25.4394 145.555C25.4394 145.555 14.438 145.055 4.438 144.555C-1.21754 144.272 -2.55192 130.83 6.93804 130.158C15.4395 129.555 25.4394 130.055 25.4394 130.055C25.4394 130.055 17.937 117.539 14.9382 110.545C12.6543 105.218 23.937 99.5383 27.9382 105.045Z" fill="white"/>
<path d="M158.438 65.5645C156.938 71.5841 155.438 79.0645 154.938 80.5645C154.438 82.0645 153.938 83.5645 149.938 83.0645C145.938 82.5645 125.938 54.5645 112.438 44.5645C98.938 34.5645 90.9379 31.7311 86.938 29.0645C82.938 26.3978 83.0865 22.0457 84.938 18.5448C86.4298 15.7242 89.9381 14.5448 95.4381 16.5448C100.938 18.5448 104.972 21.8867 110.938 25.0448V5.06514C110.938 -1.43753 125.438 -1.93458 125.438 5.06491V25.5661C125.438 25.5661 138.938 16.5448 144.938 15.5644C152.286 14.3637 154.466 25.5661 151.938 27.0448C139.938 34.0644 128.438 41.0252 126.938 42.0448C125.438 43.0644 125.438 44.5644 126.938 45.5448C128.438 46.5252 150.438 56.5645 153.438 58.0645C156.438 59.5645 159.938 59.5448 158.438 65.5645Z" fill="white"/>
<path d="M61.4388 65.0645C55.1401 66.911 52.1682 73.046 52.9388 79.5645C53.6851 85.8778 58.0088 89.2732 63.9388 91.5645C70.1742 93.9737 75.7167 93.7375 80.9388 89.5645C88.0132 83.9112 88.3323 75.3497 81.9388 70.0645C76.4004 65.4861 69.0536 62.8321 61.4388 65.0645Z" fill="black"/>
</svg>
