<svg width="49" height="29" viewBox="0 0 49 29" fill="none" xmlns="http://www.w3.org/2000/svg">
<path d="M48.7955 13.775C43.8483 5.27438 34.5415 0 24.5 0C14.4585 0 5.15174 5.27438 0.204466 13.775C0.0696083 14.0037 0 14.2505 0 14.5C0 14.7495 0.0696083 14.9963 0.204466 15.225C5.15174 23.7256 14.4585 29 24.5 29C34.5415 29 43.8483 23.7256 48.7955 15.225C48.9304 14.9963 49 14.7495 49 14.5C49 14.2505 48.9304 14.0037 48.7955 13.775ZM24.5 25.375C16.7362 25.375 9.38877 21.2244 5.15174 14.5C9.38877 7.77562 16.7362 3.625 24.5 3.625C32.2638 3.625 39.6112 7.77562 43.8483 14.5C39.6112 21.2244 32.2638 25.375 24.5 25.375ZM24.5 7.25C22.5624 7.25 20.6684 7.67521 19.0573 8.47185C17.4463 9.26849 16.1906 10.4008 15.4491 11.7255C14.7077 13.0503 14.5136 14.508 14.8917 15.9144C15.2697 17.3208 16.2027 18.6126 17.5728 19.6265C18.9428 20.6405 20.6884 21.331 22.5888 21.6107C24.4891 21.8904 26.4589 21.7469 28.249 21.1981C30.0391 20.6494 31.5691 19.7201 32.6456 18.5279C33.722 17.3356 34.2966 15.9339 34.2966 14.5C34.2966 12.5772 33.2645 10.7331 31.4272 9.37348C29.59 8.01384 27.0982 7.25 24.5 7.25ZM24.5 18.125C23.5312 18.125 22.5842 17.9124 21.7787 17.5141C20.9731 17.1158 20.3453 16.5496 19.9746 15.8872C19.6038 15.2248 19.5068 14.496 19.6958 13.7928C19.8848 13.0896 20.3513 12.4437 21.0364 11.9367C21.7214 11.4298 22.5942 11.0845 23.5444 10.9447C24.4946 10.8048 25.4795 10.8766 26.3745 11.1509C27.2695 11.4253 28.0346 11.8899 28.5728 12.4861C29.111 13.0822 29.3983 13.783 29.3983 14.5C29.3983 15.4614 28.8822 16.3834 27.9636 17.0633C27.045 17.7431 25.7991 18.125 24.5 18.125Z" fill="white"/>
</svg>
