<svg width="104" height="152" viewBox="0 0 104 152" fill="none" xmlns="http://www.w3.org/2000/svg">
<path fill-rule="evenodd" clip-rule="evenodd" d="M50.0565 0L49.8939 0.162604H49.0847L48.9222 0.323442H48.2737L48.1129 0.486047H47.6271L47.4645 0.648651H46.9786L46.8161 0.809489H46.4927L46.3302 0.972093L45.521 1.1347L42.929 2.43023L42.6039 2.75544L41.9573 3.07888L41.4714 3.56493H41.3088L40.6604 4.21358H40.4978L38.5543 6.15777V6.32037L37.9059 6.96726L37.5826 7.61591L37.0967 8.10195V8.26456L36.4482 9.07405L35.8016 10.3713L34.828 11.6669L34.6673 12.1529L34.0188 12.9642L33.8563 13.4502L33.5329 13.7737L33.0471 14.7458L32.3986 15.557L32.2361 16.0431L31.5894 16.8526L30.941 18.1499L29.9692 19.4454L29.8067 19.9314L29.1582 20.7427L28.9975 21.2287L28.6724 21.5522L28.1865 22.5243L27.5398 23.3355L27.3773 23.8216L26.7288 24.6311L26.568 25.1171L26.2429 25.4406L25.5945 26.7379L25.2712 27.0613V27.2239L24.6227 28.0334L24.462 28.5194L23.4902 29.8167L22.8418 31.1123L21.87 32.4096L21.7074 32.8956L21.059 33.7051L20.4124 35.0024L20.0873 35.3259L19.6014 36.298L18.6296 37.5953L17.9812 38.8908L17.0094 40.1881L16.8469 40.6741L16.2002 41.4836L16.0376 41.9697L15.3892 42.7809L15.2284 43.267L14.58 44.0765L14.4175 44.5625L14.0941 44.8877L13.6082 45.8598L12.9598 46.6693L12.3114 47.9666L11.988 48.29L11.5022 49.2621L10.5304 50.5594L10.3678 51.0455L10.0445 51.3689L9.88196 51.855L9.23353 52.6645L8.58686 53.9618L7.61333 55.2573L7.45255 55.7434L6.80412 56.5546L6.64157 57.0407L5.9949 57.8501L5.83235 58.3362L5.18392 59.1474L5.02314 59.6335L4.69804 59.9569L4.04961 61.2542L3.72627 61.5777L2.59196 63.8471L2.43118 64.6566L2.10608 65.1426L1.94529 65.9539L1.6202 66.4399V66.7634L1.29686 67.412V67.898L0.971765 68.5467L0.810981 69.6796L0.648432 69.8422V70.4909L0.485882 70.6517V71.3004L0.325099 71.463V72.4351L0.162549 72.5977V74.0558L0 74.2167V77.7833L0.162549 77.9442V79.5649L0.325099 79.7275V80.6996L0.485882 80.8622L0.648432 82.3204L0.810981 82.4812L0.971765 83.6159L1.29686 84.2646V84.7506L1.45765 84.9132V85.2367L1.6202 85.3993L1.78275 86.2087L2.10608 86.6948V87.02L2.43118 87.506V87.8295L4.04961 91.071L5.02314 92.3665L5.18392 92.8526L5.50902 93.1778L5.9949 94.1499L6.64157 94.9594L6.80412 95.4454L7.77588 96.7427L7.93843 97.2287L8.9102 98.5243L9.07275 99.0103L10.0445 100.308L10.2053 100.794L11.5022 102.575L11.6647 103.061L12.6365 104.359L12.7973 104.845L13.1224 105.168V105.331L14.0941 106.626L14.2567 107.112L15.2284 108.41L15.3892 108.896L16.6861 110.677L16.8469 111.165L17.8204 112.461L17.9812 112.947L18.9529 114.244L19.1155 114.73L19.9247 115.702L20.0873 116.188L20.4124 116.512L20.8982 117.484L21.87 118.781L22.0308 119.267L23.3276 121.049L23.4902 121.535L24.1369 122.346L24.2994 122.832L24.6227 123.155V123.318L25.9196 125.1L26.568 126.397L27.8631 128.178L28.0257 128.664L28.9975 129.962L29.1582 130.448L29.4833 130.771V130.934L30.7784 132.717L30.941 133.203L31.5894 134.013L31.7502 134.499L32.0753 134.822V134.985L33.3704 136.768L33.5329 137.254L34.828 139.036L34.9906 139.522L35.3157 139.847V140.008L36.6108 141.791L36.7733 142.277L37.0967 142.601V142.763L37.42 143.087V143.249L37.7451 143.573V143.735L38.0684 144.059V144.221L38.3935 144.547L38.7169 145.194L39.2027 145.68V145.842L41.7947 148.435H41.9573L42.4431 148.921L43.4149 149.407L44.2241 150.056L45.1959 150.542H45.521L46.0069 150.865H46.3302L46.4927 151.028H46.8161L47.4645 151.351H47.9504L48.1129 151.514H48.5988L48.7596 151.677H49.408L49.5706 151.837H50.8657L51.0282 152H53.2951L53.4576 151.837H54.592L54.7545 151.677H55.5637L55.7263 151.514L56.8606 151.351L57.0214 151.191L57.8324 151.028L58.3182 150.704H58.6416L60.5851 149.731L60.9102 149.407H61.071L61.3961 149.084L62.0428 148.759L62.6912 148.112H62.8537L65.1206 145.842V145.68L65.769 145.033V144.87L66.0941 144.547L66.4174 143.898L66.9033 143.412L67.0659 142.926L67.3892 142.601L67.8751 141.629L68.8469 140.333L69.0094 139.847L69.9812 138.55L70.1437 138.064L70.4671 137.74L70.9529 136.768L71.9247 135.471L72.0873 134.985L72.4106 134.661L72.8965 133.689L73.8682 132.392L74.0308 131.906L75.0025 130.61L75.1651 130.124L75.8135 129.313L75.9743 128.827L76.2994 128.504V128.341L76.9461 127.532L77.1086 127.045L77.5945 126.559L78.243 125.262L78.5663 124.939V124.776L78.8914 124.453V124.29L80.1865 122.507L80.349 122.021L80.6724 121.697L81.1582 120.725L82.13 119.428L82.2926 118.942L82.941 118.132L83.1018 117.646L84.3986 115.863L84.5612 115.377L84.8845 115.053V114.891L85.5329 114.081L85.6937 113.595L86.6655 112.298L86.828 111.812L87.4765 111.002L87.639 110.516L88.2857 109.705L88.4482 109.219L89.42 107.924L89.5826 107.437L90.5543 106.14L90.7169 105.654L91.6886 104.359L91.8494 103.873L93.1463 102.089L93.7947 100.794L94.118 100.468V100.308L94.7665 99.4964L94.9273 99.0103L95.899 97.7148L96.0616 97.2287L97.3584 95.4454L97.5192 94.9594L98.1676 94.1499L98.3302 93.6638L98.6535 93.3386L99.302 92.0431L99.7878 91.557L99.9504 91.071L100.274 90.7458L101.731 87.8295V87.506L102.055 87.02V86.6948L102.217 86.5322V86.2087L102.38 86.0462V85.7227L102.542 85.5601V85.2367L102.703 85.0741V84.7506L103.028 84.102V83.6159L103.189 83.4533L103.352 82.3204L103.514 82.1578V81.5091L103.675 81.3483V80.3744L103.837 80.2136V78.7554L104 78.5928V73.4072L103.837 73.2446V71.949L103.675 71.7864V70.9769L103.514 70.8143L103.352 69.3562L103.189 69.1936L103.028 68.0589L102.866 67.898V67.5728L102.542 66.926V66.4399L102.217 65.9539V65.6287L101.731 64.6566V64.3331L101.408 63.8471V63.5219L100.274 61.2542L99.9504 60.929L99.6253 60.1195L98.6535 58.8222L98.491 58.3362L97.8443 57.5267L97.1959 56.2294L96.5475 55.4199L96.3867 54.9339L96.0616 54.6104L95.4131 53.3131L94.7665 52.5036L94.6039 52.0176L93.9555 51.2063L93.6322 50.3968L92.9837 49.5856L92.8212 49.0995L92.1745 48.29L92.012 47.804L91.0402 46.5067L90.3918 45.2112L90.0684 44.8877L89.5826 43.9139L88.9341 43.1044L88.2857 41.8088L87.9623 41.4836L87.4765 40.5115L86.828 39.702L86.6655 39.216L86.3422 38.8908L85.6937 37.5953L84.722 36.298L84.5612 35.8119L84.2361 35.4885L84.0753 35.0024L83.4269 34.1912L82.7784 32.8956L81.8067 31.5983L81.6441 31.1123L80.9975 30.3028L80.8349 29.8167L80.1865 29.0073L80.0239 28.5194L79.3773 27.71L79.2147 27.2239L78.8914 26.9005V26.7379L78.243 25.9284L78.0804 25.4406L77.432 24.6311L76.7853 23.3355L76.4602 23.0103L75.9743 22.0382L75.3277 21.2287L75.1651 20.7427L74.8418 20.4175L74.1933 19.122L73.5449 18.3107L72.8965 17.0152L72.2498 16.2039L72.0873 15.7179L71.4388 14.9084L71.1155 14.0989L70.1437 12.8016L69.9812 12.3155L69.6578 11.9921L69.4953 11.506L68.8469 10.6948L68.6843 10.2087L68.0377 9.39926L67.8751 8.91321L67.5518 8.588L67.2267 7.94112L66.7408 7.4533V7.29247L66.2549 6.80642V6.64381L65.1206 5.50912V5.34828L64.6347 4.86223H64.4739L63.3396 3.72753L62.6912 3.40233L61.7194 2.59284L58.8041 1.1347H58.479L58.3182 0.972093H57.9931L57.8324 0.809489H57.5073L56.8606 0.486047L55.7263 0.323442L55.5637 0.162604H54.4294L54.2686 0H50.0565ZM55.7263 19.7706L55.8871 19.9314H56.5355L57.5073 20.4175L58.3182 21.2287L58.8041 22.2008V22.5243L58.9649 22.6869V23.1729L59.1275 23.3355V25.9284L58.9649 26.0892V26.7379L58.8041 26.9005V27.5473L58.479 28.196L58.3182 29.3307L57.8324 30.3028V30.6262L57.6698 30.7888L57.5073 31.5983L57.1839 32.0861V32.4096L56.8606 32.8956V33.2191L56.3729 34.0303V34.3538L55.8871 35.165V35.4885L55.5637 35.9745V36.298L55.0778 37.1092V37.4327L54.7545 37.9187L54.592 38.73L54.2686 39.216L54.1061 40.0255L53.7827 40.5115V40.9976L53.6202 41.1602V41.4836L53.4576 41.6462V41.9697L53.2951 42.1323V42.4557L52.9718 43.1044V43.5904L52.6484 44.2391V44.7251L52.4859 44.8877V45.3738L52.3233 45.5346V46.0207L52.1626 46.1833V46.8319L52 46.9927V47.6414L51.8374 47.804V48.6135L51.6767 48.7761V49.9108L51.5141 50.0716V51.855L51.3516 52.0176V53.1505L51.5141 53.3131V55.0965L51.6767 55.2573V56.2294L51.8374 56.392V57.0407L52 57.2033V57.6893L52.1626 57.8501V58.1754L52.3233 58.3362V58.8222L52.6484 59.3101V59.6335L53.9435 62.2263L54.2686 62.5498V62.7124L54.592 63.0358V63.1984L54.9153 63.5219L55.2404 64.1705L57.6698 66.7634H57.8324L58.6416 67.5728H58.8041L59.4508 68.2215L60.0992 68.5467L60.5851 69.0327H60.7477L61.5569 69.6796L62.0428 69.8422L62.3678 70.1657L63.1771 70.4909L63.5022 70.8143L65.769 71.949H66.0941L67.5518 72.7585H67.8751L69.0094 73.4072H69.3327L71.6014 74.5419H71.9247L73.059 75.1905H73.3824L77.2712 77.1347L77.5945 77.4581L78.0804 77.6208L78.4055 77.9442L78.8914 78.1068L79.2147 78.4302L79.8631 78.7554L81.1582 79.8884H81.3208L83.5877 82.1578V82.3204L84.2361 82.9673V83.1299L84.5612 83.4533V83.6159L84.8845 83.9411L85.0471 84.4272L85.5329 85.0741V85.3993L86.0188 86.2087V86.5322L86.1796 86.6948V87.02L86.5047 87.6669L86.6655 88.8016L86.828 88.9642V90.0989L86.9906 90.2597V92.3665L86.828 92.5291V93.6638L86.6655 93.8247V94.4733L86.5047 94.6359V95.122L86.3422 95.2828V95.608L86.1796 95.7706V96.094L86.0188 96.2567L85.8563 97.0661L85.5329 97.5522V97.8756L84.8845 99.1729L84.5612 99.4964L83.7502 101.117L83.4269 101.441V101.603L83.1018 101.928L82.7784 102.575L82.2926 103.061L81.9692 103.71L81.4833 104.196V104.359L80.9975 104.845V105.007L80.349 105.654V105.817L79.8631 106.303V106.465L79.3773 106.951V107.112L77.9196 108.896L77.5945 109.544L76.6227 110.677L76.2994 111.326L75.8135 111.812V111.975L75.0025 112.947L74.6792 113.595L74.1933 114.081L73.8682 114.73L73.3824 115.216V115.377L73.059 115.702V115.863L72.7357 116.188V116.349L72.4106 116.674L72.0873 117.323L71.6014 117.809V117.97L71.2763 118.295L70.9529 118.942L70.4671 119.428L70.3045 119.914L69.4953 120.888L69.3327 121.374L68.8469 121.86L68.6843 122.346L67.8751 123.318L67.7125 123.804L67.3892 124.127V124.29L67.0659 124.613L66.7408 125.262L66.2549 125.748L66.0941 126.234L65.769 126.559V126.72L65.4457 127.045V127.206L65.1206 127.532V127.692L64.7973 128.018V128.178L64.4739 128.504V128.664L64.1488 128.99V129.151L63.8255 129.476V129.638L63.5022 129.962V130.124L63.1771 130.448L62.8537 131.096L62.3678 131.583V131.743L62.0428 132.069L61.7194 132.717L61.2335 133.203L60.9102 133.85L60.2618 134.499V134.661L57.8324 137.092H57.6698L56.698 137.901L55.0778 138.712H54.7545L54.592 138.875H53.9435L53.7827 139.036H52.8092L52.6484 139.198H52.1626L52 139.036H51.0282L50.8657 138.875L50.0565 138.712L49.5706 138.389H49.2455L48.5988 138.064L48.2737 137.74H48.1129L46.6535 136.443H46.4927L45.521 135.471V135.31L43.9008 133.527V133.364L43.4149 132.878V132.717L42.6039 131.743L42.4431 131.257L41.9573 130.771V130.61L41.3088 129.799L41.1463 129.313L40.1745 128.018L39.3653 126.397L39.0402 126.072L38.0684 124.127L37.9059 123.318L37.5826 122.832V122.346L37.42 122.183V121.374L37.2592 121.211V119.428L37.42 119.267V118.618L37.5826 118.456V118.132L38.0684 117.16L38.3935 116.835V116.674L39.8512 115.216H40.012L41.3088 114.244L41.9573 113.919H42.2806L44.2241 112.947H44.5492L45.1959 112.623H45.6818L45.8443 112.461H46.3302L46.9786 112.137L48.1129 111.975L48.2737 111.812H48.9222L49.0847 111.651H49.7314L49.8939 111.488H50.5424L50.7049 111.326H51.3516L51.5141 111.165H52.3233L52.4859 111.002H53.1343L53.2951 110.84H53.9435L54.1061 110.677H54.9153L55.0778 110.516H55.7263L55.8871 110.354H56.5355L56.698 110.191L58.1557 110.03L58.3182 109.868H58.8041L58.9649 109.705H59.4508L59.6133 109.544H60.0992L60.2618 109.382H60.7477L60.9102 109.219L62.0428 109.058L62.6912 108.733H63.1771L63.3396 108.572H63.6629L63.8255 108.41H64.1488L64.3114 108.247H64.6347L64.7973 108.086H65.1206L65.2831 107.924L66.0941 107.761L66.58 107.437L67.3892 107.275L67.8751 106.951H68.1984L73.059 104.519L73.3824 104.196H73.5449L73.8682 103.873H74.0308L74.3541 103.547L75.0025 103.224L75.8135 102.414H75.9743L78.4055 99.9824V99.8216L79.0522 99.1729V99.0103L79.7006 98.2008L80.5098 96.5801V96.2567L80.8349 95.7706V95.2828L80.9975 95.122V94.6359L81.1582 94.4733V93.6638L81.3208 93.5012V92.3665L81.1582 92.2039V91.557L80.9975 91.3944V90.9084L80.349 89.6111L78.7288 87.9921L76.4602 86.8574H76.1369L75.9743 86.6948H75.4884L75.3277 86.5322H74.6792L74.5167 86.3714H73.5449L73.3824 86.2087H71.1155L70.7904 86.0462L70.6296 86.2087H68.361L68.1984 86.3714H67.0659L66.9033 86.5322H65.9316L65.769 86.6948H65.1206L64.9598 86.8574L63.5022 87.02L63.3396 87.1808H62.8537L62.6912 87.3434H62.0428L61.882 87.506H61.3961L61.2335 87.6669H60.7477L60.5851 87.8295H60.0992L59.9384 87.9921H59.29L59.1275 88.1529H58.6416L58.479 88.3155H57.8324L57.6698 88.4781H57.1839L57.0214 88.639H56.2122L56.0496 88.8016H55.4012L55.2404 88.9642H54.4294L54.2686 89.125H53.1343L52.9718 89.2876H51.1908L51.0282 89.4502H47.1394L46.9786 89.2876H45.1959L45.0351 89.125H43.9008L43.7382 88.9642H43.0898L42.929 88.8016H42.2806L42.118 88.639H41.6322L41.4714 88.4781L40.3371 88.3155L40.1745 88.1529H39.8512L39.6886 87.9921H39.3653L39.2027 87.8295H38.8794L38.7169 87.6669H38.3935L38.231 87.506L37.42 87.3434L36.9341 87.02H36.6108L34.0188 85.7227L33.6955 85.3993L33.2096 85.2367L32.8845 84.9132H32.7237L32.3986 84.588H32.2361L31.9127 84.2646L31.2643 83.9411L30.6177 83.2925H30.4551L29.8067 82.6438H29.6459L27.0539 80.051V79.8884L25.5945 78.2694V78.1068L24.9478 77.2955L24.7853 76.8095L24.462 76.486L24.2994 76L23.9761 75.6766L23.4902 74.7045V74.3793L23.0026 73.5698V73.2446L22.8418 73.0837V72.7585L22.5167 72.1116V71.6256L22.3559 71.463V70.9769L22.1933 70.8143V70.1657L22.0308 70.0048V68.8701L21.87 68.7075V64.98L22.0308 64.8192V63.5219L22.1933 63.361V62.5498L22.3559 62.3889V61.9011L22.5167 61.7403L22.6792 60.6056L23.0026 59.9569V59.4709L23.1651 59.3101V58.9848L23.3276 58.8222L23.4902 58.0127L23.8135 57.5267V57.2033L24.6227 55.5825V55.2573L25.5945 53.4757V53.1505L26.2429 51.855L26.568 51.5315L27.5398 49.4247L27.8631 49.0995L28.5116 47.6414L28.8349 47.318L29.1582 46.5067L29.8067 45.6972L29.9692 45.2112L30.6177 44.4017L31.2643 43.1044L31.5894 42.7809V42.6183L31.9127 42.2949V42.1323L32.2361 41.8088V41.6462L32.5612 41.3228V41.1602L32.8845 40.835V40.6741L33.2096 40.3489V40.1881L33.5329 39.8629L33.8563 39.216L34.3422 38.73V38.5673L34.828 38.0813V37.9187L35.639 36.9466L35.9624 36.298L36.4482 35.8119L36.7733 35.165L37.42 34.5164V34.3538L37.9059 33.8677V33.7051L38.5543 33.0582V32.8956L39.2027 32.247V32.0861L40.012 31.2749V31.1123L42.7665 28.196V28.0334L43.7382 27.0613H43.9008L46.0069 24.9545H46.1676L48.1129 23.1729H48.2737L48.7596 22.6869H48.9222L50.7049 21.3896L52.9718 20.2567H53.2951L53.9435 19.9314H54.592L54.7545 19.7706H55.7263Z" fill="white"/>
</svg>
